<svg width="572" height="174" viewBox="0 0 572 174" fill="none" xmlns="http://www.w3.org/2000/svg">
<path fill-rule="evenodd" clip-rule="evenodd" d="M559.123 1.12204C562.79 1.12204 566.456 1.12204 570.123 1.12204C569.791 57.958 570.124 114.624 571.123 171.122C567.325 172.105 563.325 172.439 559.123 172.122C559.123 115.122 559.123 58.122 559.123 1.12204Z" fill="#2D104F"/>
<path fill-rule="evenodd" clip-rule="evenodd" d="M445.123 80.122C443.948 79.903 442.948 80.236 442.123 81.122C440.637 84.095 439.137 87.095 437.623 90.122C436.873 90.748 436.039 91.248 435.123 91.622C435.96 92.633 436.293 93.8 436.123 95.122C435.123 95.122 434.123 95.122 433.123 95.122C433.28 96.495 433.113 97.829 432.623 99.122C430.295 105.282 426.129 109.615 420.123 112.122C423.048 117.578 421.714 121.744 416.123 124.622C417.288 126.49 416.955 128.324 415.123 130.122C414.157 132.018 413.824 134.018 414.123 136.122C413.691 137.332 413.024 138.332 412.123 139.122C411.362 138.231 410.362 137.564 409.123 137.122C408.583 140.408 407.417 143.408 405.623 146.122C404.304 148.109 402.471 149.276 400.123 149.622C404.177 151.563 403.843 152.397 399.123 152.122C399.042 156.784 397.875 161.117 395.623 165.122C395.133 163.829 394.966 162.495 395.123 161.122C393.801 160.952 392.634 161.285 391.623 162.122C391.126 164.768 390.959 167.435 391.123 170.122C387.611 169.112 384.444 169.112 381.623 170.122C381.29 169.455 380.956 168.789 380.623 168.122C378.715 170.529 376.715 170.529 374.623 168.122C373.623 168.789 372.623 169.455 371.623 170.122C366.504 170.098 361.337 170.098 356.123 170.122C353.595 169.105 353.595 167.938 356.123 166.622C356.471 163.897 355.805 161.23 354.123 158.622C354.79 157.955 355.456 157.289 356.123 156.622C354.982 155.881 354.982 155.047 356.123 154.122C357.251 153.36 358.418 152.693 359.623 152.122C359.997 147.826 360.83 143.659 362.123 139.622C361.001 138.009 361.501 136.842 363.623 136.122C364.576 138.214 365.909 138.547 367.623 137.122C368.31 135.054 368.143 133.054 367.123 131.122C368.132 127.431 369.132 123.765 370.123 120.122C382.361 97.217 395.027 74.55 408.123 52.122C408.79 52.122 409.123 51.789 409.123 51.122C410.027 50.413 410.36 49.413 410.123 48.122C380.952 48.453 351.952 48.12 323.123 47.122C330.587 31.527 338.587 16.194 347.123 1.12203C394.79 -0.210966 442.456 -0.210966 490.123 1.12203C475.349 27.681 460.349 54.014 445.123 80.122Z" fill="#2D0D50"/>
<path fill-rule="evenodd" clip-rule="evenodd" d="M216.929 0.126537C270.515 -0.211445 323.872 0.127555 377 1.14456C368.02 16.2693 356.809 30.3515 343.372 43.3923C338.1 45.2879 332.719 46.9849 327.23 48.4824C272.488 49.3131 217.787 49.1442 163.123 47.9734C167.922 26.9361 182.719 11.4958 207.513 1.65357C210.526 0.658961 213.664 0.149951 216.929 0.126537Z" fill="#2D0D50"/>
<path fill-rule="evenodd" clip-rule="evenodd" d="M515.123 1.12204C525.969 0.794038 536.636 1.12804 547.123 2.12204C544.766 1.95904 542.433 2.12504 540.123 2.62204C541.071 3.10504 542.071 3.27104 543.123 3.12204C544.462 19.92 545.129 36.753 545.123 53.622C544.613 66.628 544.613 79.461 545.123 92.122C544.684 93.726 544.017 95.226 543.123 96.622C544.251 98.09 544.917 99.757 545.123 101.622C543.854 106.301 543.854 110.968 545.123 115.622C542.998 118.742 542.665 122.075 544.123 125.622C543.513 141.183 542.846 156.683 542.123 172.122C533.79 172.122 525.456 172.122 517.123 172.122C517.455 130.952 517.122 89.952 516.123 49.122C507.123 48.455 498.123 47.789 489.123 47.122C497.287 31.456 505.953 16.123 515.123 1.12204Z" fill="#2C0C4F"/>
<path fill-rule="evenodd" clip-rule="evenodd" d="M42.1231 1.12204C81.9601 0.790039 121.627 1.12304 161.123 2.12204C154.248 15.163 146.748 27.829 138.623 40.122C134.789 44.615 129.956 47.448 124.123 48.622C83.1231 49.289 42.1231 49.289 1.12306 48.622C-1.33994 31.543 4.66006 18.21 19.1231 8.62204C26.2621 4.37904 33.9291 1.87904 42.1231 1.12204Z" fill="#2D0D51"/>
<path fill-rule="evenodd" clip-rule="evenodd" d="M547.123 2.12203C547.123 58.789 547.123 115.455 547.123 172.122C545.456 172.122 543.79 172.122 542.123 172.122C542.846 156.683 543.513 141.183 544.123 125.622C542.665 122.075 542.998 118.742 545.123 115.622C543.854 110.968 543.854 106.301 545.123 101.622C544.917 99.757 544.251 98.09 543.123 96.622C544.017 95.226 544.684 93.726 545.123 92.122C544.613 79.461 544.613 66.628 545.123 53.622C545.129 36.753 544.462 19.92 543.123 3.12203C542.071 3.27103 541.071 3.10503 540.123 2.62203C542.433 2.12503 544.766 1.95903 547.123 2.12203Z" fill="#270C46"/>
<path fill-rule="evenodd" clip-rule="evenodd" d="M559.123 1.12203C562.921 0.139025 566.921 -0.194975 571.123 0.122025C571.123 57.122 571.123 114.122 571.123 171.122C570.124 114.624 569.791 57.958 570.123 1.12203C566.456 1.12203 562.79 1.12203 559.123 1.12203Z" fill="#2C0B4E"/>
<path fill-rule="evenodd" clip-rule="evenodd" d="M1.12305 62.122C42.79 62.122 84.456 62.122 126.123 62.122C126.123 77.789 126.123 93.455 126.123 109.122C84.456 109.122 42.79 109.122 1.12305 109.122C1.12305 93.455 1.12305 77.789 1.12305 62.122Z" fill="#2C0B4E"/>
<path fill-rule="evenodd" clip-rule="evenodd" d="M302.123 163.71C293.175 169.933 283.175 173.322 272.123 173.874C234.286 174.211 196.619 173.872 159.123 172.857C167.831 156.385 177.164 140.293 187.123 124.58C216.123 124.242 245.123 123.902 274.123 123.564C279.795 118.552 279.462 114.147 273.123 110.351C246.749 110.305 220.416 109.627 194.123 108.318C187.792 105.772 182.459 101.877 178.123 96.63C177.867 93.6246 176.867 90.914 175.123 88.4991C175.971 86.5589 176.305 84.5261 176.123 82.4009C173.79 82.4009 171.456 82.4009 169.123 82.4009C168.79 76.9806 168.456 71.5593 168.123 66.1391C207.305 66.4572 246.472 66.1177 285.623 65.1227C289.522 64.7924 291.688 66.4867 292.123 70.2045C294.952 70.0267 296.619 71.3815 297.123 74.27C300.34 73.0229 303.34 73.5311 306.123 75.7945C304.863 77.6382 304.863 79.5012 306.123 81.3845C307.558 79.4524 309.225 79.114 311.123 80.3682C313.161 83.2587 313.494 86.3078 312.123 89.5155C314.088 90.3204 316.088 90.9983 318.123 91.5482C318.862 95.5893 320.528 99.1465 323.123 102.22C322.614 103.408 321.781 104.255 320.623 104.761C320.456 116.972 319.956 129.168 319.123 141.35C318.157 145.048 315.824 146.742 312.123 146.432C311.887 149.771 310.887 152.82 309.123 155.579C307.297 156.006 305.297 156.006 303.123 155.579C302.719 158.251 302.386 160.961 302.123 163.71Z" fill="#2C0C4F"/>
<path fill-rule="evenodd" clip-rule="evenodd" d="M279.123 62.122C305.673 66.838 321.506 82.505 326.623 109.122C327.953 128.47 321.786 144.97 308.123 158.622C306.235 160.016 304.235 161.182 302.123 162.122C302.386 159.417 302.719 156.751 303.123 154.122C305.297 154.542 307.297 154.542 309.123 154.122C310.887 151.407 311.887 148.407 312.123 145.122C315.824 145.427 318.157 143.76 319.123 140.122C319.956 128.136 320.456 116.136 320.623 104.122C321.781 103.624 322.614 102.791 323.123 101.622C320.528 98.598 318.862 95.098 318.123 91.122C316.088 90.581 314.088 89.914 312.123 89.122C313.494 85.966 313.161 82.966 311.123 80.122C309.225 78.888 307.558 79.221 306.123 81.122C304.863 79.269 304.863 77.436 306.123 75.622C303.34 73.395 300.34 72.895 297.123 74.122C296.619 71.28 294.952 69.947 292.123 70.122C291.688 66.464 289.522 64.797 285.623 65.122C246.472 66.101 207.305 66.435 168.123 66.122C168.456 71.455 168.79 76.789 169.123 82.122C171.456 82.122 173.79 82.122 176.123 82.122C176.305 84.213 175.971 86.213 175.123 88.122C176.867 90.498 177.867 93.165 178.123 96.122C169.724 88.328 164.724 78.661 163.123 67.122C163.123 65.455 163.123 63.789 163.123 62.122C201.79 62.122 240.456 62.122 279.123 62.122Z" fill="#2C0B4E"/>
<path fill-rule="evenodd" clip-rule="evenodd" d="M445.123 80.122C435.294 99.118 424.96 117.785 414.123 136.122C413.824 134.018 414.157 132.018 415.123 130.122C416.955 128.324 417.288 126.49 416.123 124.622C421.714 121.744 423.048 117.578 420.123 112.122C426.129 109.615 430.295 105.282 432.623 99.122C433.113 97.829 433.28 96.495 433.123 95.122C434.123 95.122 435.123 95.122 436.123 95.122C436.293 93.8 435.96 92.633 435.123 91.622C436.039 91.248 436.873 90.748 437.623 90.122C439.137 87.095 440.637 84.095 442.123 81.122C442.948 80.236 443.948 79.903 445.123 80.122Z" fill="#2C0B4E"/>
<path fill-rule="evenodd" clip-rule="evenodd" d="M202.689 132.437C195.722 143.482 188.075 154.22 179.749 164.648C174.686 169.361 168.35 172.305 160.741 173.48C125.783 174.173 90.827 174.173 55.8695 173.48C25.7387 169.859 7.82279 156.178 2.12305 132.437C2.12305 129.666 2.12305 126.896 2.12305 124.125C69.4162 123.951 136.709 124.125 204 124.644C202.941 124.964 202.066 125.484 201.378 126.203C202.49 128.186 202.928 130.264 202.689 132.437Z" fill="#2C0C4F"/>
<path fill-rule="evenodd" clip-rule="evenodd" d="M370.123 120.122C369.132 123.765 368.132 127.431 367.123 131.122C368.143 133.054 368.31 135.054 367.623 137.122C365.909 138.547 364.576 138.214 363.623 136.122C361.501 136.842 361.001 138.009 362.123 139.622C360.83 143.659 359.997 147.826 359.623 152.122C358.418 152.693 357.251 153.36 356.123 154.122C354.982 155.047 354.982 155.881 356.123 156.622C355.456 157.289 354.79 157.955 354.123 158.622C355.805 161.23 356.471 163.897 356.123 166.622C353.595 167.938 353.595 169.105 356.123 170.122C361.337 170.098 366.504 170.098 371.623 170.122C372.623 169.455 373.623 168.789 374.623 168.122C376.715 170.529 378.715 170.529 380.623 168.122C380.956 168.789 381.29 169.455 381.623 170.122C384.444 169.112 387.611 169.112 391.123 170.122C390.959 167.435 391.126 164.768 391.623 162.122C392.634 161.285 393.801 160.952 395.123 161.122C394.966 162.495 395.133 163.829 395.623 165.122C397.875 161.117 399.042 156.784 399.123 152.122C403.843 152.397 404.177 151.563 400.123 149.622C402.471 149.276 404.304 148.109 405.623 146.122C407.417 143.408 408.583 140.408 409.123 137.122C410.362 137.564 411.362 138.231 412.123 139.122C406.039 150.293 399.706 161.293 393.123 172.122C375.615 172.452 358.282 172.119 341.123 171.122C350.552 153.924 360.219 136.924 370.123 120.122Z" fill="#2A0F4B"/>
<path d="M446 77.5L430 107M413 137.5L430 107M430 107L423.5 104" stroke="#2D0D50"/>
<path d="M443.485 81.3749C443.054 82.369 441.747 84.288 441.201 84.9431C440.576 85.6915 440.049 86.3781 439.524 86.9901C439.403 87.1307 439.221 87.2508 439.089 87.4036C438.833 87.7001 439.515 86.3546 440.862 83.6584C442.27 80.8413 442.744 80.5924 442.809 80.5258C442.832 80.8472 442.659 81.4154 442.398 82.002C442.309 82.2867 442.309 82.5454 442.048 82.9425" stroke="#2D0D50" stroke-width="2" stroke-linecap="round"/>
<path d="M439.174 87.2534C439.088 87.5564 438.826 88.2514 438.282 89.124C438.036 89.5196 439.344 87.7393 440.234 86.3925C441.099 85.084 441.828 83.8635 442.37 82.4526C443.299 80.8263 444.092 79.7224 444.44 79.3096C444.573 79.1124 444.616 78.94 444.791 78.501" stroke="#2D0D50" stroke-width="2" stroke-linecap="round"/>
<path d="M439.696 87.6453C439.567 88.1208 439.132 89.0796 438.698 89.8399C437.595 91.7708 436.998 92.2148 436.542 92.8026C435.892 93.64 435.388 94.1743 435.103 94.7621C434.682 95.6323 434.385 96.2644 434.102 96.7875C434.032 96.9168 433.993 97.0482 433.971 96.8992C433.718 95.2029 434.469 93.1383 435.248 91.3826C436.45 88.6772 437.474 86.9934 437.713 86.7328C437.829 86.6067 437.909 86.4722 437.975 86.9013C438.041 87.3304 438.084 88.3219 437.288 90.126C436.491 91.93 434.853 94.5165 433.987 95.9136C433.122 97.3107 433.079 97.4401 433.056 97.3773C432.949 97.0737 433.12 96.2722 433.51 95.1004C434.03 93.5356 435.294 91.879 435.99 90.4846C436.206 90.0529 436.342 90.2971 436.214 90.753C435.514 93.2465 434.213 94.6498 433.602 95.6974C433.474 95.9187 433.384 96.0893 433.361 96.0057C432.93 94.427 435.034 92.5257 435.556 91.96C435.767 91.7309 435.906 91.6531 435.951 91.8242C436.104 92.4065 435.736 93.3447 435.173 94.6021C433.616 98.0787 432.342 99.0494 431.968 99.6614C431.616 100.239 431.077 101.095 430.749 101.99C430.314 103.179 428.987 104.102 428.681 104.604C428.529 104.853 428.288 105.061 428.201 105.193C427.669 106.002 429.674 102.762 430.961 101.15C432.07 99.7611 432.598 99.2297 432.75 99.1193C434 98.2128 431.041 103.872 430.162 104.93C429.592 105.618 428.943 106.192 428.594 106.846C428.502 107.018 428.42 107.193 428.311 107.282C428.202 107.371 428.073 107.371 427.985 107.306C427.231 106.753 428.415 104.374 429.069 102.436C429.681 100.621 430.247 100.144 430.399 100.012C430.639 99.8036 429.647 102.475 428.232 105.413C427.723 106.455 427.637 106.584 427.527 106.694C427.418 106.804 427.289 106.89 427.025 106.979" stroke="#2D0D50" stroke-width="2" stroke-linecap="round"/>
<path d="M424.543 107.893C423.414 109.368 422.154 111.066 420.55 112.864C419.473 114.071 417.998 115.998 416.833 117.708C415.668 119.418 414.892 120.883 414.428 121.725C413.963 122.566 413.834 122.738 415.858 120.456C417.882 118.174 422.064 113.432 424.369 110.687C426.674 107.943 426.976 107.339 425.945 108.947C424.915 110.554 422.544 114.391 421.711 115.828C420.84 117.331 423.8 112.904 423.848 113.05C424.019 113.575 422.774 114.877 422.072 116.147C420.746 118.547 420.103 119.953 419.907 120.128C419.857 120.173 419.84 119.958 420.465 118.9C421.091 117.841 422.341 115.901 423.847 113.781C425.353 111.661 427.077 109.419 427.879 108.437C428.682 107.454 428.509 107.799 428.14 108.386C426.539 110.933 426.113 111.982 425.288 112.982C423.331 115.352 423.194 116.252 423.15 116.297C422.1 117.378 424.714 112.949 425.042 112.403C425.832 111.089 422.589 115.857 422.063 116.707C421.086 118.287 420.669 119.167 420.147 120.126C419.708 120.934 419.145 122.124 418.774 122.828C418.632 123.099 419.314 121.659 420.268 119.969C420.871 118.902 421.567 117.33 421.966 116.466C422.366 115.602 422.409 115.472 421.224 117.389C420.039 119.305 417.625 123.271 416.532 125.099C415.439 126.926 415.741 126.495 416.047 125.993C417.236 124.044 417.488 122.962 417.533 122.958C419.634 122.806 416.402 126.092 416.141 126.398C415.94 126.634 416.483 125.057 417.029 124.162C417.688 123.081 415.36 126.913 414.185 128.916C413.829 129.523 413.447 130.26 413.355 130.508C412.999 131.469 415.046 128.189 415.721 127.6C415.924 127.423 416.008 127.744 416.008 128.007C416.013 129.94 414.094 132.404 413.941 133.014C413.749 133.78 415.05 131.539 414.943 131.688C413.664 133.466 413.527 134.323 413.462 134.411C412.892 135.187 414.09 132.674 415.589 129.048C415.896 128.306 416.049 128.23 416.073 128.401C416.28 129.909 415.268 130.883 415.311 130.864C415.852 130.618 416.09 128.546 417.09 126.328C417.756 124.85 418.272 124.18 418.467 123.833C418.559 123.67 418.534 123.485 418.405 123.612C417.919 124.088 417.535 125.304 417.208 126.241C416.77 127.499 418.573 121.965 418.991 121.305C419.312 120.797 418.193 123.73 416.975 126.035C416.469 126.993 416.274 127.564 416.249 127.702C416.121 128.412 417.915 125.672 419.249 124.118C419.492 123.834 419.663 123.574 419.795 123.549C420.922 123.331 418.667 126.527 418.383 127.094C418.247 127.364 418.013 127.617 417.774 127.878C417.658 128.004 417.578 128.139 417.771 127.839C417.963 127.539 418.437 126.806 419.307 125.243C420.176 123.68 421.426 121.309 422.178 119.829C423.183 117.85 423.497 117.169 423.607 117.103C423.194 117.82 421.985 120.583 421.126 122.218C421.102 122.221 421.189 122.048 421.277 121.871" stroke="#2D0D50" stroke-width="2" stroke-linecap="round"/>
</svg>
